<?xml version="1.0" encoding="UTF-8"?>
<svg id="Capa_1" data-name="Capa 1" xmlns="http://www.w3.org/2000/svg" viewBox="0 0 1080 1080">
  <defs>
    <style>
      .cls-1 {
        font-size: 108.67px;
      }

      .cls-1, .cls-2 {
        fill: #fff;
      }

      .cls-3 {
        font-family: Raleway-Black, Raleway;
        font-weight: 800;
      }

      .cls-4 {
        font-family: Raleway-Regular, Raleway;
      }

      .cls-5 {
        fill: #602982;
      }
    </style>
  </defs>
  <rect class="cls-5" width="1080" height="1080"/>
  <g>
    <path class="cls-2" d="M230.76,428.74c-2.98-7.23-5.61-14.56-7.94-21.96v246.91c0,87.21,70.7,157.9,157.9,157.9h0v-203.29l-90.8-90.8c-25.52-25.52-45.42-55.38-59.16-88.76Z"/>
    <path class="cls-2" d="M380.72,344.08v-100.32c0-48.53-39.34-87.87-87.87-87.87h-70.03c0,19.4,7.7,38,21.42,51.71l136.48,136.48Z"/>
    <path class="cls-2" d="M698.27,812.8h0c87.21,0,157.9-70.7,157.9-157.9v-187.24l-157.9,157.9v187.24Z"/>
    <path class="cls-2" d="M856.18,155.89h-70.03c-48.53,0-87.87,39.34-87.87,87.87v115.51l157.9-157.9v-45.48Z"/>
  </g>
  <path class="cls-2" d="M857.16,324.71l-1.46-104.48-315.95,315.95L223.79,220.23l-.48,103.88c-.32,69.05,26.97,135.36,75.8,184.19l167.55,167.55,74.69,74.69h0s106.37-106.37,106.37-106.37h0s134.94-134.94,134.94-134.94c48.64-48.64,75.46-115.07,74.49-184.52Z"/>
</svg>